<svg width="414" height="123" viewBox="0 0 414 123" fill="none" xmlns="http://www.w3.org/2000/svg">
<path d="M2.03235 116.991L12.2672 114.432V44.0036H0.752991V40.1655H12.2672V31.8369C12.0891 26.2483 13.5462 20.7292 16.4597 15.9568C19.3731 11.1843 23.6163 7.36611 28.6685 4.97046C34.5158 2.19982 40.9294 0.832972 47.3983 0.978856C52.4768 0.864851 57.5257 1.78322 62.2388 3.6783C66.0043 4.99634 69.3123 7.36747 71.77 10.5101C73.7953 13.0101 74.9178 16.1204 74.9556 19.3376C75.0257 21.0238 74.7497 22.7064 74.1446 24.2818C73.5395 25.8573 72.6182 27.2921 71.4374 28.4978C70.2374 29.6385 68.8177 30.5228 67.2649 31.0969C65.712 31.671 64.0585 31.9227 62.4051 31.8369C60.8385 31.8344 59.2739 31.7232 57.7227 31.5043L55.7141 31.0053V4.94486L54.2172 4.61224L52.7716 4.26681C52.1128 4.15073 51.4447 4.09506 50.7758 4.10049C47.0059 4.10049 44.1231 6.09628 42.1273 10.0879C40.1315 14.0794 39.1336 21.2311 39.1336 31.5427V40.1527H66.0001V43.9908H39.1336V114.496L49.3685 116.978V119.473H2.03235V116.991Z" fill="black"/>
<path d="M76.235 116.991L86.4698 114.496V8.10487L76.235 5.61012V3.1154H97.0629C99.0319 3.1154 100.982 3.50321 102.801 4.25674C104.62 5.01026 106.273 6.11471 107.665 7.50705C109.058 8.8994 110.162 10.5523 110.916 12.3715C111.669 14.1906 112.057 16.1404 112.057 18.1094V114.547L122.292 117.042V119.537H76.235V116.991Z" fill="black"/>
<path fill-rule="evenodd" clip-rule="evenodd" d="M136.953 110.722C144.842 118.492 155.67 122.377 169.436 122.377C183.108 122.496 193.884 118.611 201.765 110.722C209.646 102.833 213.587 92.0007 213.587 78.2263C213.484 64.5628 209.544 53.7906 201.765 45.9098C193.987 38.029 183.21 34.0886 169.436 34.0886C155.551 34.1909 144.723 38.1313 136.953 45.9098C129.183 53.6883 125.298 64.4605 125.298 78.2263C125.179 92.1201 129.064 102.952 136.953 110.722ZM180.605 109.711C177.598 115.942 173.888 119.051 169.436 119.051C164.997 119.051 161.12 115.929 158.114 109.711C155.107 103.494 153.61 92.9901 153.61 78.2263C153.61 63.4626 155.005 52.9591 158.114 46.7414C161.223 40.5238 164.984 37.4149 169.436 37.4149C173.888 37.4149 177.496 40.5238 180.605 46.7414C183.714 52.9591 185.262 63.4498 185.262 78.2263C185.262 93.0029 183.611 103.481 180.605 109.711Z" fill="black"/>
<path d="M259.183 122.441C253.217 122.532 247.313 121.217 241.95 118.603C237.23 116.175 233.186 112.615 230.18 108.24C227.438 104.313 225.952 99.6471 225.92 94.8579V41.3681L215.685 38.8094V36.2507H237.792C239.761 36.2507 241.711 36.6385 243.53 37.392C245.349 38.1456 247.002 39.25 248.394 40.6423C249.787 42.0346 250.891 43.6876 251.645 45.5068C252.398 47.3259 252.786 49.2757 252.786 51.2447V94.5637C252.786 101.566 253.98 106.952 256.368 110.722C258.863 114.381 261.741 116.223 265.004 116.223C269.021 116.223 272.654 114.001 275.904 109.558C277.349 107.452 278.604 105.221 279.652 102.892V41.3681L269.418 38.8094V36.3146H316.754V38.8734L306.519 41.4321V120.853C298.436 120.778 292.266 118.548 288.007 114.163C286.15 112.274 284.75 109.985 283.913 107.472C282.363 110.209 280.472 112.737 278.284 114.995C275.765 117.459 272.776 119.388 269.493 120.668C266.211 121.947 262.704 122.55 259.183 122.441Z" fill="black"/>
<path d="M306.519 120.853C306.659 120.854 306.8 120.854 306.941 120.854H306.519V120.853Z" fill="black"/>
<path d="M335.522 111.989L321.871 116.991V119.486H353.855V116.991L341.33 111.989L358.87 89.715L368.887 105.374C371.328 109.522 374.563 113.148 378.406 116.044C381.749 118.373 386.095 119.537 391.443 119.537H413.985V117.183L404.85 114.624L372.137 67.9787L392.965 43.8117L407.588 38.8094V36.3146H375.604V38.8094L388.027 43.7733L372.457 63.936L364.013 50.4387C361.571 46.3665 358.37 42.8008 354.584 39.9352C350.784 37.3559 346.252 36.0726 341.663 36.2763H319.312V38.6303L327.846 41.189L356.67 85.5059L335.522 111.989Z" fill="black"/>
</svg>
